<svg xmlns="http://www.w3.org/2000/svg"
  xmlns:xlink="http://www.w3.org/1999/xlink" version="1.1" viewBox="0 0 1024 1024">
  <path d="M554.6669999999999,170.666748046875L256,170.666748046875L256,853.333748046875L768,853.333748046875L768,383.99974804687497L554.6669999999999,383.99974804687497L554.6669999999999,170.666748046875Z" fill-opacity="0.1"/>
  <path d="M853.3336717529297,341.333251953125L597.3336717529296,85.333251953125L255.9999717529297,85.333251953125C209.0666717529297,85.333251953125,171.09334775292967,123.733251953125,171.09334775292967,170.666551953125L170.6666717529297,853.333251953125C170.6666717529297,900.266251953125,208.63997175292968,938.666251953125,255.5733717529297,938.666251953125L767.9996717529297,938.666251953125C814.9336717529297,938.666251953125,853.3336717529297,900.266251953125,853.3336717529297,853.333251953125L853.3336717529297,341.333251953125ZM767.9996717529297,853.333251953125L255.9999717529297,853.333251953125L255.9999717529297,170.666551953125L554.6666717529297,170.666551953125L554.6666717529297,384.000251953125L767.9996717529297,384.000251953125L767.9996717529297,853.333251953125Z" />
  <path d="M702.1890000000001,719.54C705.598,719.524,708.7080000000001,721.473,710.162,724.538C711.617,727.6030000000001,711.1510000000001,731.227,708.969,733.832L692.4870000000001,753.466L676.004,773.798L652.624,802.262L643.155,813.881C639.6510000000001,818.04,633.216,818.04,629.712,813.881L620.2429999999999,802.262L592.188,769.848L578.16,753.117L561.678,733.832C559.496,731.227,559.03,727.6030000000001,560.485,724.538C561.939,721.473,565.049,719.524,568.458,719.54L583.304,719.54C588.21,719.54,592.188,715.587,592.188,710.711L592.188,638.4449999999999C592.211,634.754,589.891,631.4490000000001,586.3969999999999,630.196C582.904,628.943,578.996,630.013,576.64,632.8679999999999L561.912,650.295L511.528,710.362C507.98,714.528,501.517,714.528,497.96799999999996,710.362L447.585,650.295L435.8956,636.354C433.5531,633.38,429.5501,632.245,425.9817,633.542C422.4132,634.8389999999999,420.0913,638.273,420.2312,642.046L420.2312,769.847C420.2312,774.725,416.2536,778.678,411.3469,778.678L345.76731,778.678C340.90682,778.615,336.9999707416,774.679,336.9999707416,769.847L336.9999707416,499.49058C337.186233,494.79525,341.03978,491.0674211,345.76731,491.00923949L423.7382,491.00923949C426.3874,490.9725452,428.8994,492.1778,430.5182,494.26236L489.552,564.5529L497.96799999999996,574.5446C501.517,578.7098,507.98,578.7098,511.528,574.5446L519.829,564.5529L578.979,493.91381C580.668,491.959522,583.169,490.888001,585.759,491.00923655L666.652,491.00923655C671.5409999999999,491.00880995,675.4839999999999,494.98139,675.4200000000001,499.83912L675.4200000000001,710.711C675.4200000000001,715.587,679.3969999999999,719.54,684.303,719.54L702.1890000000001,719.54Z" fill-opacity="0.9"/>
</svg>
